HIERARCHY
ROOT Hips
{
    OFFSET 0.000000 0.000000 0.000000
    CHANNELS 6 Xposition Yposition Zposition Zrotation Xrotation Yrotation
    JOINT Spine
    {
        OFFSET -0.000000 7.246840 0.000000
        CHANNELS 3 Zrotation Xrotation Yrotation
        JOINT Spine1
        {
            OFFSET -0.000000 20.289354 0.000000
            CHANNELS 3 Zrotation Xrotation Yrotation
            JOINT Neck
            {
                OFFSET -0.000000 20.206032 1.836912
                CHANNELS 3 Zrotation Xrotation Yrotation
                JOINT Head
                {
                    OFFSET -0.000000 12.372654 -1.767522
                    CHANNELS 3 Zrotation Xrotation Yrotation
                    End Site
                    {
                        OFFSET -0.000000 22.094025 0.000000
                    }
                }
            }
            JOINT LeftShoulder
            {
                OFFSET 3.465871 17.201674 -0.568930
                CHANNELS 3 Zrotation Xrotation Yrotation
                JOINT LeftArm
                {
                    OFFSET 14.070313 0.000000 0.000000
                    CHANNELS 3 Zrotation Xrotation Yrotation
                    JOINT LeftForeArm
                    {
                        OFFSET 26.549477 0.000000 0.000000
                        CHANNELS 3 Zrotation Xrotation Yrotation
                        JOINT LeftHand
                        {
                            OFFSET 18.880413 0.000000 0.000000
                            CHANNELS 3 Zrotation Xrotation Yrotation
                            End Site
                            {
                                OFFSET 13.256415 0.000000 0.000000
                            }
                        }
                    }
                }
            }
            JOINT RightShoulder
            {
                OFFSET -3.526370 17.201674 -0.568930
                CHANNELS 3 Zrotation Xrotation Yrotation
                JOINT RightArm
                {
                    OFFSET -14.070313 0.000000 0.000000
                    CHANNELS 3 Zrotation Xrotation Yrotation
                    JOINT RightForeArm
                    {
                        OFFSET -26.549477 0.000000 0.000000
                        CHANNELS 3 Zrotation Xrotation Yrotation
                        JOINT RightHand
                        {
                            OFFSET -18.880413 0.000000 0.000000
                            CHANNELS 3 Zrotation Xrotation Yrotation
                            End Site
                            {
                                OFFSET -13.256415 0.000000 0.000000
                            }
                        }
                    }
                }
            }
        }
    }
    JOINT LeftUpLeg
    {
        OFFSET 8.837609 0.000000 0.000000
        CHANNELS 3 Zrotation Xrotation Yrotation
        JOINT LeftLeg
        {
            OFFSET -0.000000 -41.345005 0.000000
            CHANNELS 3 Zrotation Xrotation Yrotation
            JOINT LeftFoot
            {
                OFFSET -0.000000 -35.500874 0.000000
                CHANNELS 3 Zrotation Xrotation Yrotation
                JOINT LeftToeBase
                {
                    OFFSET -0.000000 -5.744446 13.256415
                    CHANNELS 3 Zrotation Xrotation Yrotation
                    End Site
                    {
                        OFFSET -0.000000 0.000000 3.535044
                    }
                }
            }
        }
    }
    JOINT RightUpLeg
    {
        OFFSET -8.837609 0.000000 0.000000
        CHANNELS 3 Zrotation Xrotation Yrotation
        JOINT RightLeg
        {
            OFFSET -0.000000 -41.345005 0.000000
            CHANNELS 3 Zrotation Xrotation Yrotation
            JOINT RightFoot
            {
                OFFSET -0.000000 -35.500874 0.000000
                CHANNELS 3 Zrotation Xrotation Yrotation
                JOINT RightToeBase
                {
                    OFFSET -0.000000 -5.744446 13.256415
                    CHANNELS 3 Zrotation Xrotation Yrotation
                    End Site
                    {
                        OFFSET -0.000000 0.000000 3.535044
                    }
                }
            }
        }
    }
}
MOTION
Frames:    8
Frame Time:    0.010000
1.161320    82.598816    -62.508686    2.253043    2.050367    -1.733688    -3.358387    -13.303598    -0.756000    -1.672788    2.734679    -0.324358    1.461285    34.624886    -1.398469    4.664765    -11.814630    -0.053276    20.193859    1.819317    6.542284    -31.068304    0.275021    -13.885044    3.125695    -5.326493    3.999483    -17.820314    -4.335276    -7.032302    -17.162611    -1.733522    12.692580    14.201810    8.644917    12.546515    2.426051    -2.831864    -9.033585    -1.837372    -2.930189    17.943245    -3.021625    10.057115    1.390422    -1.945230    -10.005343    -2.526375    5.060360    0.343883    -2.289133    -0.090816    -3.209744    0.129679    -5.892289    6.548774    -0.311654    8.325624    -10.806380    1.864058    -2.157939    1.826070    -7.954794    -1.243063    -2.132048    2.282032    
1.170409    82.598991    -62.515045    2.242533    2.041322    -1.744427    -3.342814    -13.296903    -0.752100    -1.696685    2.732139    -0.321861    1.484465    34.632011    -1.407001    4.643824    -11.844304    -0.061724    20.204655    1.824271    6.541400    -31.042044    0.356415    -13.911269    3.136825    -5.330129    4.051769    -17.854570    -4.339076    -7.029256    -17.148071    -1.737843    12.689331    14.197521    8.671861    12.532205    2.423641    -2.859736    -9.045992    -1.844261    -2.958347    17.899324    -2.999799    10.054878    1.317084    -1.962571    -9.994930    -2.553170    5.067155    0.353135    -2.174040    -0.094114    -3.224771    0.134401    -5.887336    6.540200    -0.310930    8.323249    -10.779583    1.866731    -2.193306    1.827554    -7.965549    -1.284288    -2.127999    2.357591    
1.180114    82.599014    -62.521427    2.232583    2.028184    -1.747075    -3.342313    -13.286605    -0.754158    -1.692790    2.735201    -0.324378    1.509167    34.624420    -1.413385    4.603064    -11.856384    -0.073442    20.197849    1.798607    6.536973    -31.012194    0.441141    -13.918245    3.133641    -5.328013    4.103764    -17.828684    -4.333732    -7.068352    -17.152462    -1.737380    12.690100    14.200348    8.676385    12.493983    2.410143    -2.876128    -9.019074    -1.819522    -2.971823    17.858072    -3.004547    10.065351    1.354488    -1.959831    -9.993351    -2.541878    5.073977    0.338720    -2.226002    -0.105980    -3.213920    0.151336    -5.885828    6.552285    -0.244415    8.309322    -10.804739    1.787176    -2.170199    1.837759    -7.941280    -1.279569    -2.115043    2.348586    
1.189989    82.598808    -62.527592    2.225426    2.016815    -1.759448    -3.330216    -13.275418    -0.747557    -1.711072    2.731385    -0.319155    1.524768    34.619080    -1.418022    4.587059    -11.864092    -0.079087    20.211636    1.792643    6.517653    -31.002308    0.494519    -13.915030    3.150848    -5.336555    4.134989    -17.832489    -4.339044    -7.096880    -17.150442    -1.730638    12.676829    14.211221    8.662369    12.479320    2.396584    -2.898382    -9.015615    -1.777410    -2.988934    17.878891    -3.000771    10.063005    1.330707    -1.959285    -9.971697    -2.562669    5.380118    0.252097    -2.179012    -0.094134    -2.964630    0.134207    -5.889901    6.549822    -0.240668    8.313816    -10.789310    1.797241    -2.148917    1.841865    -7.932616    -1.256435    -2.134082    2.306628    
1.199566    82.599358    -62.533688    2.216233    2.004725    -1.768256    -3.324239    -13.269497    -0.748586    -1.711488    2.742123    -0.321009    1.495646    34.595715    -1.402284    4.602281    -11.854279    -0.065156    20.200756    1.786802    6.530661    -30.984180    0.450037    -13.933688    3.098533    -5.285398    4.184325    -17.803898    -4.258646    -7.290947    -17.152655    -1.724392    12.668139    14.215015    8.631643    12.460741    2.387194    -2.901554    -9.002665    -1.737081    -2.987293    17.912312    -2.995100    10.068639    1.308113    -1.956910    -9.969741    -2.585904    5.396257    0.255900    -2.123487    -0.108564    -2.979043    0.154795    -5.888469    6.553191    -0.222861    8.319574    -10.784155    1.765727    -2.134932    1.839018    -7.905807    -1.258057    -2.125561    2.309384    
1.211161    82.599739    -62.539917    2.209730    1.996170    -1.777968    -3.317136    -13.263902    -0.747457    -1.715538    2.742869    -0.320611    1.474764    34.588078    -1.376871    4.624247    -11.865362    -0.036813    20.188332    1.817276    6.528444    -30.970259    0.437241    -13.941264    3.113249    -5.319685    4.170528    -17.798615    -4.286846    -7.333295    -17.150606    -1.716737    12.650982    14.221030    8.569230    12.456977    2.386981    -2.862299    -8.996969    -1.720453    -2.945618    17.917208    -2.999494    10.068386    1.314516    -1.976614    -9.949038    -2.490329    5.457206    0.236002    -2.205462    -0.085447    -2.982176    0.121836    -5.897261    6.551995    -0.215265    8.330444    -10.772863    1.792613    -2.135611    1.838308    -7.927770    -1.256725    -2.152959    2.307651    
1.221809    82.599838    -62.546463    2.203274    1.989847    -1.791052    -3.310551    -13.265920    -0.741573    -1.720668    2.752189    -0.315153    1.482028    34.596115    -1.384521    4.613507    -11.889099    -0.045033    20.216896    1.771076    6.515867    -31.002441    0.466484    -13.911287    3.128057    -5.356909    4.158804    -17.765703    -4.320120    -7.374079    -17.151308    -1.722672    12.632644    14.229160    8.577473    12.448433    2.387992    -2.828029    -8.994489    -1.701044    -2.908580    17.938253    -3.017759    10.068291    1.352393    -1.944572    -9.946731    -2.507354    5.102775    0.284408    -2.213349    -0.134064    -3.189408    0.191409    -5.897925    6.546002    -0.214169    8.309126    -10.767241    1.805623    -1.980679    1.853815    -7.959264    -1.218011    -2.214531    2.238131    
1.232760    82.599678    -62.555283    2.197344    1.974937    -1.817804    -3.303932    -13.247699    -0.733342    -1.717820    2.743843    -0.308646    1.474693    34.603115    -1.378788    4.602231    -11.905252    -0.042454    20.192896    1.810407    6.512417    -30.975239    0.420886    -13.915915    3.116022    -5.376834    4.132771    -17.767479    -4.334576    -7.401162    -17.152077    -1.715400    12.626318    14.227639    8.583961    12.450504    2.390704    -2.808428    -8.997816    -1.710288    -2.889933    17.924599    -3.017757    10.067695    1.346188    -1.961925    -9.923197    -2.470408    5.459035    0.210753    -2.211263    -0.079546    -2.964731    0.113409    -5.906952    6.540409    -0.197255    8.320361    -10.743514    1.819373    -2.117651    1.843273    -7.947032    -1.283159    -2.182200    2.356958    
